<svg width="732" height="1322" viewBox="0 0 732 1322" fill="none" xmlns="http://www.w3.org/2000/svg">
<path fill-rule="evenodd" clip-rule="evenodd" d="M33.3012 344.695C34.8229 688.715 34.8497 689.443 46.8199 715.377C77.3402 781.531 132.069 828.676 212.142 857.787C235.991 866.459 304.71 886.052 364.85 901.331C424.996 916.605 485.929 933.722 500.263 939.371C568.221 966.14 597.841 1004.9 593.736 1061.67C587.799 1143.76 508.546 1193.09 383.111 1192.77C251.24 1192.42 166.634 1139.01 141.135 1040L131.581 1002.9H65.7932H0V1025.9C0 1122.14 74.0932 1234.1 166.554 1277.58C296.769 1338.8 484.07 1336.47 594.76 1272.25C636.741 1247.9 683.154 1198.71 703.954 1156.53C762.176 1038.48 727.948 912.098 617.998 839.1C576.236 811.377 551.165 802.689 409.779 766.916C198.703 713.512 169.93 696.496 169.93 625.079C169.93 568.459 212.324 525.826 284.574 509.797C326.635 500.466 465.847 505.365 497.942 517.31C555.045 538.554 584.124 582.162 583.925 646.227C583.791 690.124 573.493 716.416 544.35 747.302C533.762 758.518 525.103 769.912 525.103 772.624C525.103 780.229 605.605 825.589 625.837 829.384C649.874 833.896 666.179 825.562 685.501 798.884C733.274 732.917 744.291 617.764 709.8 544.846C691.116 505.338 650.458 461.842 613.846 442.195L584.011 426.182L613.251 400.929C634.7 382.413 647.918 364.701 662.83 334.491C682.489 294.683 683.17 291.408 683.17 236.781C683.17 184.368 681.932 177.648 666.104 144.233C635.996 80.6564 587.697 38.4739 518.212 15.0594C486.921 4.51782 471.264 3.72467 258.345 1.91861L31.7741 0L33.3012 344.695ZM460.087 134.838C495.606 142.727 526.196 168.735 538.804 201.759C552.301 237.103 547.87 292.882 529.341 320.884C499.523 365.955 449.772 376.85 283.829 374.648L174.141 373.195L172.695 255.421C171.896 190.644 172.384 134.683 173.772 131.065C177.088 122.421 418.518 125.604 460.087 134.838Z" fill="white"/>
</svg>
